<svg xmlns="http://www.w3.org/2000/svg" width="540" height="500" viewBox="0 0 540 500" role="img" aria-label="Language mix · original repos">
  <title>Language mix · original repos</title>
  <rect width="540" height="500" fill="#0d1117"/>
  <g font-family="Segoe UI, Arial, sans-serif">
    <text x="270" y="30" text-anchor="middle" fill="#e6edf3" font-size="17" font-weight="700">Language mix · original repos</text>
    <polygon points="270.0,220.5 300.9,235.4 308.5,268.8 287.1,295.6 252.9,295.6 231.5,268.8 239.1,235.4" fill="none" stroke="#30363d" stroke-width="1"/><polygon points="270.0,181.0 331.8,210.7 347.0,277.6 304.3,331.2 235.7,331.2 193.0,277.6 208.2,210.7" fill="none" stroke="#30363d" stroke-width="1"/><polygon points="270.0,141.5 362.6,186.1 385.5,286.4 321.4,366.8 218.6,366.8 154.5,286.4 177.4,186.1" fill="none" stroke="#30363d" stroke-width="1"/><polygon points="270.0,102.0 393.5,161.5 424.0,295.2 338.6,402.4 201.4,402.4 116.0,295.2 146.5,161.5" fill="none" stroke="#30363d" stroke-width="1"/><line x1="270" y1="260" x2="270.0" y2="102.0" stroke="#30363d"/><line x1="270" y1="260" x2="393.5" y2="161.5" stroke="#30363d"/><line x1="270" y1="260" x2="424.0" y2="295.2" stroke="#30363d"/><line x1="270" y1="260" x2="338.6" y2="402.4" stroke="#30363d"/><line x1="270" y1="260" x2="201.4" y2="402.4" stroke="#30363d"/><line x1="270" y1="260" x2="116.0" y2="295.2" stroke="#30363d"/><line x1="270" y1="260" x2="146.5" y2="161.5" stroke="#30363d"/>
    <polygon points="270.0,102.0 365.2,184.1 323.7,272.2 291.6,304.8 249.8,301.9 225.2,270.2 235.9,232.8" fill="#123d24" fill-opacity="0.76" stroke="#39d353" stroke-width="2.5"/>
    <circle cx="270.0" cy="102.0" r="4" fill="#39d353"/><circle cx="365.2" cy="184.1" r="4" fill="#39d353"/><circle cx="323.7" cy="272.2" r="4" fill="#39d353"/><circle cx="291.6" cy="304.8" r="4" fill="#39d353"/><circle cx="249.8" cy="301.9" r="4" fill="#39d353"/><circle cx="225.2" cy="270.2" r="4" fill="#39d353"/><circle cx="235.9" cy="232.8" r="4" fill="#39d353"/><text x="270.0" y="68.0" text-anchor="middle" dominant-baseline="middle" fill="#e6edf3" font-size="13">CSS</text><text x="420.1" y="140.3" text-anchor="start" dominant-baseline="middle" fill="#e6edf3" font-size="13">HTML</text><text x="438.0" y="302.7" text-anchor="start" dominant-baseline="middle" fill="#e6edf3" font-size="13">Python</text><text x="353.3" y="433.0" text-anchor="start" dominant-baseline="middle" fill="#e6edf3" font-size="13">Java</text><text x="186.7" y="433.0" text-anchor="end" dominant-baseline="middle" fill="#e6edf3" font-size="13">Shell</text><text x="102.0" y="302.7" text-anchor="end" dominant-baseline="middle" fill="#e6edf3" font-size="13">TeX</text><text x="119.9" y="140.3" text-anchor="end" dominant-baseline="middle" fill="#e6edf3" font-size="13">JavaScript</text>
  </g>
</svg>
